<svg xmlns="http://www.w3.org/2000/svg" xmlns:xlink="http://www.w3.org/1999/xlink" width="500" zoomAndPan="magnify" viewBox="0 0 375 374.999991" height="500" preserveAspectRatio="xMidYMid meet" version="1.0"><defs><clipPath id="40200be96a"><path d="M 69.953125 159 L 304.703125 159 L 304.703125 337.5 L 69.953125 337.5 Z M 69.953125 159 " clip-rule="nonzero"/></clipPath><clipPath id="586f01144f"><path d="M 69.953125 37.5 L 304.703125 37.5 L 304.703125 172 L 69.953125 172 Z M 69.953125 37.5 " clip-rule="nonzero"/></clipPath></defs><g clip-path="url(#40200be96a)"><path fill="#d9d9d9" d="M 271.757812 159.414062 L 271.757812 196.4375 C 271.757812 228.914062 256.945312 273.125 187.496094 301.761719 C 118.046875 273.125 103.234375 228.910156 103.234375 196.429688 L 103.234375 159.417969 L 69.957031 185.308594 L 69.957031 196.429688 C 69.957031 232.3125 84.453125 298.058594 181.550781 335.203125 L 187.496094 337.476562 L 193.441406 335.203125 C 290.535156 298.0625 305.035156 232.320312 305.035156 196.4375 L 305.035156 185.304688 Z M 271.757812 159.414062 " fill-opacity="1" fill-rule="nonzero"/></g><g clip-path="url(#586f01144f)"><path fill="#a6a6a6" d="M 305.035156 76.644531 L 305.035156 171.136719 L 187.5 79.691406 L 69.964844 171.136719 L 69.964844 128.976562 C 69.964844 128.976562 69.960938 128.976562 69.953125 128.976562 L 187.5 37.527344 L 271.761719 103.085938 L 271.761719 76.644531 Z M 305.035156 76.644531 " fill-opacity="1" fill-rule="nonzero"/></g><path fill="#a6a6a6" d="M 162.753906 151.539062 L 183.097656 151.539062 L 183.097656 171.882812 L 162.753906 171.882812 Z M 162.753906 151.539062 " fill-opacity="1" fill-rule="nonzero"/><path fill="#a6a6a6" d="M 212.234375 171.878906 L 191.890625 171.878906 L 191.890625 151.539062 L 212.234375 151.539062 Z M 212.234375 171.878906 " fill-opacity="1" fill-rule="nonzero"/><path fill="#a6a6a6" d="M 162.753906 180.675781 L 183.097656 180.675781 L 183.097656 201.015625 L 162.753906 201.015625 Z M 162.753906 180.675781 " fill-opacity="1" fill-rule="nonzero"/><path fill="#a6a6a6" d="M 212.234375 201.015625 L 191.890625 201.015625 L 191.890625 180.675781 L 212.234375 180.675781 Z M 212.234375 201.015625 " fill-opacity="1" fill-rule="nonzero"/></svg>